<svg xmlns="http://www.w3.org/2000/svg"> 

<symbol id="diskette"
 fill="none" 
 viewBox="0 0 21 21">
  <path fill="#000" d="M0 0h1.6v1.6H0zM0 1.6h1.6v1.6H0zM0 3.2h1.6v1.6H0z"/>
  <path fill="#000" d="M0 4.8h1.6v1.6H0zM0 6.5h1.6v1.6H0zM0 8.1h1.6v1.6H0zM0 9.7h1.6v1.6H0zM0 11.3h1.6v1.6H0zM0 12.9h1.6v1.6H0zM0 14.5h1.6v1.6H0zM0 16.2h1.6v1.6H0zM0 17.8h1.6v1.6H0z"/>
  <path fill="#000" d="M0 19.4h1.6V21H0zM17.8 0v1.6h-1.6V0zM16.2 0v1.6h-1.6V0zM14.5 0v1.6H13V0zM13 0v1.6h-1.7V0zM11.3 0v1.6H9.7V0zM9.7 0v1.6H8V0zM8 0v1.6H6.6V0zM6.5 0v1.6H4.9V0zM4.8 0v1.6H3.2V0zM3.2 0v1.6H1.6V0zM19.4 1.6v1.6h-1.6V1.6zM4.9 3.2v1.6H3.3V3.2zM4.9 1.6v1.6H3.3V1.6z"/>
  <path fill="#000" d="M4.9 4.8v1.6H3.3V4.8zM16.2 3.3v1.6h-1.6V3.3zM16.2 1.7v1.6h-1.6V1.7zM16.2 4.9v1.6h-1.6V4.9zM13 3.2v1.6h-1.6V3.2zM13 1.6v1.6h-1.7V1.6z"/>
  <path fill="#000" d="M13 4.8v1.6h-1.6V4.8zM16.1 6.5v1.6h-1.6V6.5zM14.5 6.4V8h-1.6V6.4zM12.9 6.4V8h-1.6V6.4zM11.3 6.5V8H9.7V6.5zM9.7 6.5V8H8V6.5zM8 6.5V8H6.4V6.5zM6.4 6.5v1.6H4.8V6.5zM4.8 6.4V8H3.2V6.4zM17.8 11.3V13h-1.6v-1.6zM16.2 11.4V13h-1.6v-1.6zM14.5 11.3v1.6H13v-1.6zM13 11.3v1.6h-1.7v-1.6zM11.3 11.3v1.6H9.7v-1.6zM9.7 11.3V13H8.1v-1.6zM8 11.3V13H6.6v-1.6zM6.5 11.3V13H4.9v-1.6zM4.9 11.3v1.6H3.3v-1.6zM17.8 13v1.6h-1.6V13zM4.9 12.9v1.6H3.3v-1.6zM17.8 14.6v1.6h-1.6v-1.6z"/>
  <path fill="#000" d="M4.9 14.5V16H3.3v-1.6zM17.7 16.2v1.6h-1.6v-1.6zM4.8 16.1v1.6H3.2v-1.6z"/>
  <path fill="#000" d="M4.8 17.7v1.6H3.2v-1.6zM17.7 17.8v1.6h-1.6v-1.6zM19.4 19.4V21h-1.6v-1.6z"/>
  <path fill="#000" d="M17.8 19.4V21h-1.6v-1.6zM16.1 19.4V21h-1.6v-1.6zM14.5 19.3V21H13v-1.6zM13 19.4V21h-1.7v-1.6zM11.3 19.4V21H9.7v-1.6zM9.7 19.4V21H8v-1.6zM8 19.4V21H6.6v-1.6zM6.4 19.4V21H4.8v-1.6zM4.8 19.3V21H3.2v-1.6zM3.2 19.4V21H1.6v-1.6zM21 21h-1.6v-1.6H21zM21 19.4h-1.6v-1.6H21zM21 17.7h-1.6v-1.6H21z"/>
  <path fill="#000" d="M21 16.1h-1.6v-1.6H21z"/>
  <path fill="#000" d="M21 14.6h-1.6V13H21zM21 13h-1.6v-1.7H21zM21 11.3h-1.6V9.7H21zM21 9.7h-1.6V8H21zM21 8h-1.6V6.6H21zM21 6.4h-1.6V4.8H21z"/>
  <path fill="#000" d="M21 4.9h-1.6V3.3H21z"/>
</symbol>

</svg>
